<?xml version="1.0" encoding="UTF-8" standalone="no"?>
<!-- Created with Inkscape (http://www.inkscape.org/) -->

<svg
   width="219.12595mm"
   height="219.19244mm"
   viewBox="0 0 219.12595 219.19244"
   version="1.1"
   id="svg5"
   sodipodi:docname="各種アイコン.svg"
   inkscape:version="1.1.1 (3bf5ae0d25, 2021-09-20)"
   inkscape:export-filename="C:\Users\hiro9\Config.png"
   inkscape:export-xdpi="30.959999"
   inkscape:export-ydpi="30.959999"
   xmlns:inkscape="http://www.inkscape.org/namespaces/inkscape"
   xmlns:sodipodi="http://sodipodi.sourceforge.net/DTD/sodipodi-0.dtd"
   xmlns="http://www.w3.org/2000/svg"
   xmlns:svg="http://www.w3.org/2000/svg">
  <sodipodi:namedview
     id="namedview7"
     pagecolor="#ffffff"
     bordercolor="#666666"
     borderopacity="1.0"
     inkscape:pageshadow="2"
     inkscape:pageopacity="0.0"
     inkscape:pagecheckerboard="true"
     inkscape:document-units="mm"
     showgrid="true"
     inkscape:zoom="0.66368545"
     inkscape:cx="298.3341"
     inkscape:cy="592.90135"
     inkscape:window-width="1714"
     inkscape:window-height="1067"
     inkscape:window-x="540"
     inkscape:window-y="1617"
     inkscape:window-maximized="0"
     inkscape:current-layer="layer4"
     fit-margin-top="0"
     fit-margin-left="0"
     fit-margin-right="0"
     fit-margin-bottom="0">
    <inkscape:grid
       type="xygrid"
       id="grid899"
       enabled="false"
       originx="1.8656867"
       originy="1.9386687" />
  </sodipodi:namedview>
  <defs
     id="defs2">
    <clipPath
       clipPathUnits="userSpaceOnUse"
       id="clipPath838">
      <path
         d="M 0,800 H 800 V 0 H 0 Z"
         id="path836" />
    </clipPath>
    <clipPath
       clipPathUnits="userSpaceOnUse"
       id="clipPath10629">
      <path
         d="M 0,800 H 800 V 0 H 0 Z"
         id="path10627" />
    </clipPath>
    <clipPath
       clipPathUnits="userSpaceOnUse"
       id="clipPath16844">
      <path
         d="M 0,800 H 800 V 0 H 0 Z"
         id="path16842" />
    </clipPath>
    <clipPath
       clipPathUnits="userSpaceOnUse"
       id="clipPath879">
      <path
         d="M 0,800 H 800 V 0 H 0 Z"
         id="path877" />
    </clipPath>
  </defs>
  <g
     inkscape:groupmode="layer"
     id="layer4"
     inkscape:label="Config"
     style="display:inline"
     sodipodi:insensitive="true">
    <path
       d="m 108.93079,87.695122 c -11.451171,0 -20.767321,9.31616 -20.767321,20.767328 0,11.45117 9.31615,20.76733 20.767321,20.76733 11.45116,0 20.76732,-9.31616 20.76732,-20.76733 0,-11.451168 -9.31616,-20.767328 -20.76732,-20.767328 m 0,55.645768 c -19.232041,0 -34.878441,-15.6464 -34.878441,-34.87844 0,-19.232038 15.6464,-34.878438 34.878441,-34.878438 19.23203,0 34.87843,15.6464 34.87843,34.878438 0,19.23204 -15.6464,34.87844 -34.87843,34.87844 m 82.47168,-44.847948 c 0.002,0 0.004,2.7e-4 0.006,8e-4 z M 98.778549,189.60134 h 20.304481 l 2.62008,-19.10362 c 0.37147,-2.70722 2.27224,-4.95688 4.87997,-5.77392 3.30341,-1.0354 6.5465,-2.38089 9.63895,-3.99944 2.42288,-1.26858 5.3594,-1.02199 7.53709,0.63042 l 15.36665,11.66071 14.3577,-14.35805 -11.66036,-15.36665 c -1.65276,-2.17805 -1.8983,-5.11457 -0.63041,-7.5371 1.61854,-3.0928 2.96439,-6.33553 3.99908,-9.63859 0.81739,-2.60738 3.06705,-4.50885 5.77427,-4.88033 l 19.10362,-2.62008 V 98.310202 l -19.10362,-2.62008 c -2.70722,-0.37112 -4.95688,-2.27259 -5.77427,-4.87997 -1.03469,-3.30306 -2.38054,-6.54615 -3.99908,-9.6393 -1.26789,-2.42182 -1.02235,-5.3587 0.63041,-7.53639 l 11.66001,-15.367 -14.35735,-14.35771 -15.36665,11.66037 c -2.17805,1.65276 -5.11457,1.89865 -7.53709,0.63041 -3.09139,-1.61819 -6.33483,-2.96369 -9.6393,-3.99944 -2.60738,-0.81739 -4.50815,-3.0667 -4.87962,-5.77392 l -2.62008,-19.10362 H 98.778549 l -2.62008,19.10362 c -0.37112,2.70722 -2.27224,4.95653 -4.87998,5.77392 -3.30411,1.0354 -6.5472,2.38125 -9.63894,3.99944 -2.42253,1.26824 -5.35905,1.02235 -7.53675,-0.63041 l -15.367,-11.66001 -14.35735,14.35735 11.66001,15.367 c 1.65276,2.17805 1.8983,5.11457 0.63041,7.53674 -1.61819,3.09175 -2.96403,6.33483 -3.99944,9.63895 -0.81738,2.60773 -3.06669,4.50885 -5.77427,4.87997 l -19.10326,2.62008 v 20.304488 l 19.10362,2.62008 c 2.70757,0.37148 4.95688,2.27295 5.77427,4.88033 1.03505,3.30341 2.38054,6.5465 3.99908,9.63859 1.26789,2.42253 1.02235,5.35905 -0.63041,7.5371 l -11.66036,15.36665 14.3577,14.35805 15.367,-11.66071 c 2.1777,-1.65241 5.11422,-1.89865 7.53639,-0.63042 3.09316,1.6189 6.33625,2.96439 9.63895,3.99944 2.60773,0.81704 4.50921,3.0667 4.88033,5.77392 z m 21.656321,14.11111 H 97.426349 c -6.14327,0 -11.60956,-4.76744 -12.44459,-10.85356 l -2.21685,-16.16639 c -1.20333,-0.46214 -2.39607,-0.95744 -3.57576,-1.48379 l -13.00092,9.86508 c -4.89373,3.71369 -12.13062,3.21945 -16.47472,-1.12465 l -16.26941,-16.26906 c -4.3441,-4.34445 -4.83799,-11.58134 -1.12465,-16.47543 l 9.86507,-13.00056 c -0.52634,-1.17934 -1.02164,-2.37243 -1.48378,-3.57576 l -16.16569,-2.21685 c -6.08647,-0.83503 -10.854261,-6.30132 -10.854261,-12.44459 V 96.958012 c 0,-6.14327 4.767791,-11.60921 10.853911,-12.44459 l 16.16604,-2.21686 c 0.46214,-1.20332 0.95744,-2.39642 1.48378,-3.57575 l -9.86507,-13.00093 c -3.71334,-4.89408 -3.21945,-12.13061 1.12465,-16.47472 l 16.26976,-16.2694 c 4.34375,-4.34446 11.58064,-4.838 16.47437,-1.1243 l 13.00092,9.86472 c 1.17934,-0.52635 2.37208,-1.02129 3.57576,-1.48378 l 2.21685,-16.16534 c 0.83503,-6.08683 6.30132,-10.85462 12.44459,-10.85462 h 23.008521 c 6.14327,0 11.60992,4.76779 12.44494,10.85427 l 2.21686,16.16569 c 1.20332,0.46249 2.39642,0.95743 3.57575,1.48378 l 13.00057,-9.86472 c 4.89373,-3.71405 12.13062,-3.22016 16.47507,1.1243 l 16.26976,16.26976 c 4.34375,4.34375 4.838,11.58028 1.1243,16.47436 l -9.86507,13.00128 c 0.52634,1.17934 1.02164,2.37208 1.48378,3.5754 l 16.16569,2.21686 h 2.6e-4 c 6.08612,0.83538 10.85391,6.30132 10.85391,12.44459 v 23.008878 c 0,6.14327 -4.76779,11.60956 -10.85391,12.44459 l -16.16604,2.21685 c -0.46214,1.20333 -0.95744,2.39607 -1.48378,3.57576 l 9.86507,13.00056 c 3.71334,4.89409 3.21945,12.13098 -1.1243,16.47543 l -16.26976,16.26941 c -4.3441,4.34375 -11.58134,4.83764 -16.47507,1.1243 l -13.00057,-9.86508 c -1.17969,0.52635 -2.37243,1.02165 -3.57575,1.48379 l -2.21686,16.16604 c -0.83502,6.08647 -6.30167,10.85391 -12.44494,10.85391"
       style="fill:#f5f5f5;fill-opacity:1;fill-rule:nonzero;stroke:none;stroke-width:0.352777"
       id="path883" />
  </g>
</svg>
