<?xml version="1.0" encoding="UTF-8" standalone="no"?>
<!-- Created with Inkscape (http://www.inkscape.org/) -->

<svg
   width="219.12595mm"
   height="219.19244mm"
   viewBox="0 0 219.12595 219.19244"
   version="1.1"
   id="svg5"
   sodipodi:docname="各種アイコン.svg"
   inkscape:version="1.1.1 (3bf5ae0d25, 2021-09-20)"
   inkscape:export-filename="C:\Users\hiro9\Config.png"
   inkscape:export-xdpi="30.959999"
   inkscape:export-ydpi="30.959999"
   xmlns:inkscape="http://www.inkscape.org/namespaces/inkscape"
   xmlns:sodipodi="http://sodipodi.sourceforge.net/DTD/sodipodi-0.dtd"
   xmlns="http://www.w3.org/2000/svg"
   xmlns:svg="http://www.w3.org/2000/svg">
  <sodipodi:namedview
     id="namedview7"
     pagecolor="#ffffff"
     bordercolor="#666666"
     borderopacity="1.0"
     inkscape:pageshadow="2"
     inkscape:pageopacity="0.0"
     inkscape:pagecheckerboard="true"
     inkscape:document-units="mm"
     showgrid="true"
     inkscape:zoom="0.66368545"
     inkscape:cx="298.3341"
     inkscape:cy="592.90135"
     inkscape:window-width="1714"
     inkscape:window-height="1067"
     inkscape:window-x="540"
     inkscape:window-y="1617"
     inkscape:window-maximized="0"
     inkscape:current-layer="layer3"
     fit-margin-top="0"
     fit-margin-left="0"
     fit-margin-right="0"
     fit-margin-bottom="0">
    <inkscape:grid
       type="xygrid"
       id="grid899"
       enabled="false"
       originx="1.8656867"
       originy="1.9386687" />
  </sodipodi:namedview>
  <defs
     id="defs2">
    <clipPath
       clipPathUnits="userSpaceOnUse"
       id="clipPath838">
      <path
         d="M 0,800 H 800 V 0 H 0 Z"
         id="path836" />
    </clipPath>
    <clipPath
       clipPathUnits="userSpaceOnUse"
       id="clipPath10629">
      <path
         d="M 0,800 H 800 V 0 H 0 Z"
         id="path10627" />
    </clipPath>
    <clipPath
       clipPathUnits="userSpaceOnUse"
       id="clipPath16844">
      <path
         d="M 0,800 H 800 V 0 H 0 Z"
         id="path16842" />
    </clipPath>
    <clipPath
       clipPathUnits="userSpaceOnUse"
       id="clipPath879">
      <path
         d="M 0,800 H 800 V 0 H 0 Z"
         id="path877" />
    </clipPath>
  </defs>
  <g
     inkscape:groupmode="layer"
     id="layer3"
     inkscape:label="Screen"
     sodipodi:insensitive="true"
     style="display:inline">
    <g
       id="g16840"
       clip-path="url(#clipPath16844)"
       transform="matrix(0.35277777,0,0,-0.35277777,-31.500524,259.89442)">
      <path
         d="M 646.283,316.585 H 153.717 v 275.916 h 492.566 z m 11.224,314.632 H 142.494 C 127.372,631.217 115,618.845 115,603.724 V 305.361 c 0,-15.121 12.372,-27.493 27.494,-27.493 h 515.013 c 15.121,0 27.493,12.372 27.493,27.493 v 298.363 c 0,15.121 -12.372,27.493 -27.493,27.493"
         style="fill:#f5f5f5;fill-opacity:1;fill-rule:nonzero;stroke:none"
         id="path16846" />
      <g
         id="g16848"
         transform="translate(513.126,208.71)">
        <path
           d="M 0,0 H -45.977 L -56.266,46.977 H -169.987 L -180.276,0 h -45.976 c -5.324,0 -9.679,-4.355 -9.679,-9.68 v -20.568 c 0,-5.323 4.355,-9.679 9.679,-9.679 H 0 c 5.324,0 9.68,4.356 9.68,9.679 V -9.68 C 9.68,-4.355 5.324,0 0,0"
           style="fill:#f5f5f5;fill-opacity:1;fill-rule:nonzero;stroke:none"
           id="path16850" />
      </g>
      <g
         id="g16852"
         transform="translate(624.835,337.085)">
        <path
           d="m 0,0 h -28 v 18 h 10 V 28 H 0 Z"
           style="fill:#f5f5f5;fill-opacity:1;fill-rule:nonzero;stroke:none"
           id="path16854" />
      </g>
      <path
         d="m 274.741,337.085 h -35.788 v 18 h 35.788 z m 71.576,0 h -35.788 v 18 h 35.788 z m 71.577,0 h -35.788 v 18 h 35.788 z m 71.577,0 h -35.788 v 18 h 35.788 z m 71.576,0 h -35.788 v 18 h 35.788 z"
         style="fill:#f5f5f5;fill-opacity:1;fill-rule:nonzero;stroke:none"
         id="path16856" />
      <g
         id="g16858"
         transform="translate(203.165,337.085)">
        <path
           d="m 0,0 h -28 v 28 h 18 V 18 H 0 Z"
           style="fill:#f5f5f5;fill-opacity:1;fill-rule:nonzero;stroke:none"
           id="path16860" />
      </g>
      <path
         d="m 193.165,472.434 h -18 v 35.783 h 18 z m 0,-71.566 h -18 v 35.783 h 18 z"
         style="fill:#f5f5f5;fill-opacity:1;fill-rule:nonzero;stroke:none"
         id="path16862" />
      <g
         id="g16864"
         transform="translate(193.165,544)">
        <path
           d="M 0,0 H -18 V 28 H 10 V 10 H 0 Z"
           style="fill:#f5f5f5;fill-opacity:1;fill-rule:nonzero;stroke:none"
           id="path16866" />
      </g>
      <path
         d="m 274.741,554 h -35.788 v 18 h 35.788 z m 71.577,0 H 310.53 v 18 h 35.788 z m 71.577,0 h -35.789 v 18 h 35.789 z m 71.576,0 h -35.788 v 18 h 35.788 z m 71.576,0 h -35.788 v 18 h 35.788 z"
         style="fill:#f5f5f5;fill-opacity:1;fill-rule:nonzero;stroke:none"
         id="path16868" />
      <g
         id="g16870"
         transform="translate(624.835,544)">
        <path
           d="M 0,0 H -18 V 10 H -28 V 28 H 0 Z"
           style="fill:#f5f5f5;fill-opacity:1;fill-rule:nonzero;stroke:none"
           id="path16872" />
      </g>
      <path
         d="m 624.835,472.435 h -18 v 35.783 h 18 z m 0,-71.566 h -18 v 35.783 h 18 z"
         style="fill:#f5f5f5;fill-opacity:1;fill-rule:nonzero;stroke:none"
         id="path16874" />
      <g
         id="g16876"
         transform="translate(400,463.9028)">
        <path
           d="m 0,0 c -10.543,0 -19.121,-8.578 -19.121,-19.122 0,-10.543 8.578,-19.121 19.121,-19.121 10.544,0 19.122,8.578 19.122,19.121 C 19.122,-8.578 10.544,0 0,0"
           style="fill:#f5f5f5;fill-opacity:1;fill-rule:nonzero;stroke:none"
           id="path16878" />
      </g>
      <g
         id="g16880"
         transform="translate(400,413.8657)">
        <path
           d="m 0,0 c -17.047,0 -30.915,13.869 -30.915,30.916 0,17.046 13.868,30.915 30.915,30.915 17.047,0 30.915,-13.869 30.915,-30.915 C 30.915,13.869 17.047,0 0,0 M 66.943,80.255 H 33.182 v 14.522 c 0,2.75 -2.25,5 -5,5 h -56.364 c -2.75,0 -5,-2.25 -5,-5 V 80.255 h -33.761 c -5.5,0 -10,-4.5 -10,-10 V -8.423 c 0,-5.5 4.5,-10 10,-10 H 66.943 c 5.5,0 10,4.5 10,10 v 78.678 c 0,5.5 -4.5,10 -10,10"
           style="fill:#f5f5f5;fill-opacity:1;fill-rule:nonzero;stroke:none"
           id="path16882" />
      </g>
    </g>
  </g>
  <g
     inkscape:label="✕"
     inkscape:groupmode="layer"
     id="layer1"
     transform="translate(1.8656867,1.9386688)"
     style="display:inline"
     sodipodi:insensitive="true">
    <path
       style="fill:#f5f5f5;fill-opacity:1;stroke:#4873cf;stroke-width:7;stroke-linecap:butt;stroke-linejoin:miter;stroke-miterlimit:4;stroke-dasharray:none;stroke-opacity:1"
       d="M 4.4417999,23.254954 191.25063,210.06373 c 10.20008,11.08279 31.11475,-5.03994 18.68094,-18.68087 L 23.122721,4.5740727 C 12.352024,-5.731701 -5.2624339,12.761755 4.4417999,23.254954 Z"
       id="path901"
       sodipodi:nodetypes="ccccc" />
  </g>
</svg>
