<?xml version="1.0" encoding="UTF-8" standalone="no"?>
<!-- Created with Inkscape (http://www.inkscape.org/) -->

<svg
   width="219.12595mm"
   height="219.19244mm"
   viewBox="0 0 219.12595 219.19244"
   version="1.1"
   id="svg5"
   sodipodi:docname="各種アイコン.svg"
   inkscape:version="1.1.1 (3bf5ae0d25, 2021-09-20)"
   inkscape:export-filename="C:\Users\hiro9\Config.png"
   inkscape:export-xdpi="30.959999"
   inkscape:export-ydpi="30.959999"
   xmlns:inkscape="http://www.inkscape.org/namespaces/inkscape"
   xmlns:sodipodi="http://sodipodi.sourceforge.net/DTD/sodipodi-0.dtd"
   xmlns="http://www.w3.org/2000/svg"
   xmlns:svg="http://www.w3.org/2000/svg">
  <sodipodi:namedview
     id="namedview7"
     pagecolor="#ffffff"
     bordercolor="#666666"
     borderopacity="1.0"
     inkscape:pageshadow="2"
     inkscape:pageopacity="0.0"
     inkscape:pagecheckerboard="true"
     inkscape:document-units="mm"
     showgrid="true"
     inkscape:zoom="0.66368545"
     inkscape:cx="298.3341"
     inkscape:cy="592.90135"
     inkscape:window-width="1714"
     inkscape:window-height="1067"
     inkscape:window-x="540"
     inkscape:window-y="1617"
     inkscape:window-maximized="0"
     inkscape:current-layer="layer1"
     fit-margin-top="0"
     fit-margin-left="0"
     fit-margin-right="0"
     fit-margin-bottom="0">
    <inkscape:grid
       type="xygrid"
       id="grid899"
       enabled="false"
       originx="1.8656867"
       originy="1.9386687" />
  </sodipodi:namedview>
  <defs
     id="defs2">
    <clipPath
       clipPathUnits="userSpaceOnUse"
       id="clipPath838">
      <path
         d="M 0,800 H 800 V 0 H 0 Z"
         id="path836" />
    </clipPath>
    <clipPath
       clipPathUnits="userSpaceOnUse"
       id="clipPath10629">
      <path
         d="M 0,800 H 800 V 0 H 0 Z"
         id="path10627" />
    </clipPath>
    <clipPath
       clipPathUnits="userSpaceOnUse"
       id="clipPath16844">
      <path
         d="M 0,800 H 800 V 0 H 0 Z"
         id="path16842" />
    </clipPath>
    <clipPath
       clipPathUnits="userSpaceOnUse"
       id="clipPath879">
      <path
         d="M 0,800 H 800 V 0 H 0 Z"
         id="path877" />
    </clipPath>
  </defs>
  <g
     inkscape:label="Speaker"
     inkscape:groupmode="layer"
     id="g10503"
     transform="translate(1.8656867,1.9386688)"
     style="display:inline"
     sodipodi:insensitive="true">
    <g
       id="g10499"
       clip-path="url(#clipPath838)"
       transform="matrix(0.35277777,0,0,-0.35277777,-48.622641,250.74205)">
      <g
         id="g10493"
         transform="translate(520.6406,114.8252)">
        <path
           d="m 0,0 c -2.308,0 -4.576,0.901 -6.271,2.597 l -154.562,154.56 h -193.579 c -4.897,0 -8.867,3.971 -8.867,8.868 v 244.254 c 0,4.898 3.97,8.868 8.867,8.868 h 199.534 L -6.271,567.752 c 1.694,1.697 3.963,2.598 6.271,2.598 1.143,0 2.294,-0.221 3.391,-0.676 3.314,-1.372 5.474,-4.606 5.474,-8.192 V 8.868 C 8.865,5.281 6.705,2.049 3.391,0.675 2.294,0.222 1.143,0 0,0"
           style="fill:#f5f5f5;fill-opacity:1;fill-rule:evenodd;stroke:none"
           id="path10491" />
      </g>
      <g
         id="g10497"
         transform="translate(574.2871,225.9199)">
        <path
           d="M 0,0 C -0.675,0 -1.35,0.231 -1.896,0.688 -2.913,1.538 -3.24,2.96 -2.695,4.169 16.779,47.491 27.95,105.374 27.95,162.975 c 0,59.997 -11.957,119.578 -32.806,163.466 -0.566,1.19 -0.275,2.611 0.711,3.484 0.556,0.49 1.255,0.741 1.959,0.741 0.547,0 1.1,-0.153 1.587,-0.463 C 16.947,319.029 32.746,299.39 45.089,273.409 60.09,241.83 68.352,203.192 68.352,164.613 68.352,126.197 60.573,89.14 45.858,57.445 33.998,31.9 18.719,12.216 1.672,0.52 1.167,0.173 0.582,0 0,0"
           style="fill:#f5f5f5;fill-opacity:1;fill-rule:evenodd;stroke:none"
           id="path10495" />
      </g>
    </g>
  </g>
  <g
     inkscape:label="✕"
     inkscape:groupmode="layer"
     id="layer1"
     transform="translate(1.8656867,1.9386688)"
     style="display:inline"
     sodipodi:insensitive="true">
    <path
       style="fill:#f5f5f5;fill-opacity:1;stroke:#4873cf;stroke-width:7;stroke-linecap:butt;stroke-linejoin:miter;stroke-miterlimit:4;stroke-dasharray:none;stroke-opacity:1"
       d="M 4.4417999,23.254954 191.25063,210.06373 c 10.20008,11.08279 31.11475,-5.03994 18.68094,-18.68087 L 23.122721,4.5740727 C 12.352024,-5.731701 -5.2624339,12.761755 4.4417999,23.254954 Z"
       id="path901"
       sodipodi:nodetypes="ccccc" />
  </g>
</svg>
